<?xml version="1.0" standalone="no"?>
<!DOCTYPE svg PUBLIC "-//W3C//DTD SVG 20010904//EN"
 "http://www.w3.org/TR/2001/REC-SVG-20010904/DTD/svg10.dtd">
<svg version="1.0" xmlns="http://www.w3.org/2000/svg"
 width="200.000000pt" height="200.000000pt" viewBox="0 0 200.000000 200.000000"
 preserveAspectRatio="xMidYMid meet">
<metadata>
Created by potrace 1.11, written by Peter Selinger 2001-2013
</metadata>
<g transform="translate(0.000000,200.000000) scale(0.100000,-0.100000)"
fill="#000000" stroke="none">
<path d="M482 1637 c-62 -32 -105 -78 -125 -134 -16 -45 -17 -92 -15 -519 3
-519 2 -506 70 -573 69 -67 54 -66 572 -69 524 -3 530 -2 600 65 73 71 71 55
74 573 2 331 0 477 -8 505 -16 54 -66 119 -115 147 l-40 23 -485 2 c-484 2
-485 2 -528 -20z"/>
</g>
</svg>
